<svg width="18" height="22" viewBox="0 0 18 22" fill="none" xmlns="http://www.w3.org/2000/svg">
<path d="M12.1765 0C15.1574 0 17.5663 1.17695 17.5993 4.16884V20.8662C17.5993 21.0532 17.5553 21.2402 17.4673 21.4052C17.3243 21.6692 17.0823 21.8672 16.7854 21.9552C16.4994 22.0431 16.1804 21.9991 15.9164 21.8452L8.78866 18.2813L1.64994 21.8452C1.48604 21.9321 1.29795 21.9882 1.11096 21.9882C0.494981 21.9882 0 21.4822 0 20.8662V4.16884C0 1.17695 2.41991 0 5.38979 0H12.1765ZM12.9245 6.64374C12.9245 6.72445 12.9245 7.12662 12.9245 6.64374C12.9245 6.15976 12.9245 6.59974 12.9245 6.64374Z" fill="#FACA4E"/>
</svg>
