<svg width="23" height="23" viewBox="0 0 23 23" fill="none" xmlns="http://www.w3.org/2000/svg">
<path d="M7.42714 2.39575C7.42714 1.9988 7.10534 1.677 6.70839 1.677C6.31143 1.677 5.98964 1.9988 5.98964 2.39575V3.90921C4.61028 4.01966 3.70475 4.29073 3.03947 4.95601C2.3742 5.62128 2.10312 6.52681 1.99268 7.90617H21.0074C20.897 6.52681 20.6259 5.62128 19.9606 4.95601C19.2953 4.29073 18.3898 4.01966 17.0105 3.90921V2.39575C17.0105 1.9988 16.6887 1.677 16.2917 1.677C15.8948 1.677 15.573 1.9988 15.573 2.39575V3.84561C14.9354 3.83325 14.2208 3.83325 13.4167 3.83325H9.58339C8.77932 3.83325 8.06469 3.83325 7.42714 3.84561V2.39575Z" fill="#888888"/>
<path fill-rule="evenodd" clip-rule="evenodd" d="M1.9165 11.5C1.9165 10.696 1.9165 9.98133 1.92887 9.34375H21.0708C21.0832 9.98133 21.0832 10.696 21.0832 11.5V13.4167C21.0832 17.0307 21.0832 18.8379 19.9604 19.9606C18.8377 21.0833 17.0306 21.0833 13.4165 21.0833H9.58317C5.96907 21.0833 4.16202 21.0833 3.03926 19.9606C1.9165 18.8379 1.9165 17.0307 1.9165 13.4167V11.5ZM16.2915 13.4167C16.8208 13.4167 17.2498 12.9876 17.2498 12.4583C17.2498 11.929 16.8208 11.5 16.2915 11.5C15.7622 11.5 15.3332 11.929 15.3332 12.4583C15.3332 12.9876 15.7622 13.4167 16.2915 13.4167ZM16.2915 17.25C16.8208 17.25 17.2498 16.821 17.2498 16.2917C17.2498 15.7624 16.8208 15.3333 16.2915 15.3333C15.7622 15.3333 15.3332 15.7624 15.3332 16.2917C15.3332 16.821 15.7622 17.25 16.2915 17.25ZM12.4582 12.4583C12.4582 12.9876 12.0291 13.4167 11.4998 13.4167C10.9706 13.4167 10.5415 12.9876 10.5415 12.4583C10.5415 11.929 10.9706 11.5 11.4998 11.5C12.0291 11.5 12.4582 11.929 12.4582 12.4583ZM12.4582 16.2917C12.4582 16.821 12.0291 17.25 11.4998 17.25C10.9706 17.25 10.5415 16.821 10.5415 16.2917C10.5415 15.7624 10.9706 15.3333 11.4998 15.3333C12.0291 15.3333 12.4582 15.7624 12.4582 16.2917ZM6.70817 13.4167C7.23744 13.4167 7.6665 12.9876 7.6665 12.4583C7.6665 11.929 7.23744 11.5 6.70817 11.5C6.1789 11.5 5.74984 11.929 5.74984 12.4583C5.74984 12.9876 6.1789 13.4167 6.70817 13.4167ZM6.70817 17.25C7.23744 17.25 7.6665 16.821 7.6665 16.2917C7.6665 15.7624 7.23744 15.3333 6.70817 15.3333C6.1789 15.3333 5.74984 15.7624 5.74984 16.2917C5.74984 16.821 6.1789 17.25 6.70817 17.25Z" fill="#888888"/>
</svg>
