<svg width="34" height="30" viewBox="0 0 34 30" fill="none" xmlns="http://www.w3.org/2000/svg">
<path d="M16.6663 21.9997C19.6119 21.9997 21.9997 19.6119 21.9997 16.6663C21.9997 13.7208 19.6119 11.333 16.6663 11.333C13.7208 11.333 11.333 13.7208 11.333 16.6663C11.333 19.6119 13.7208 21.9997 16.6663 21.9997Z" fill="#FACA4E"/>
<path d="M11.6667 0L8.61667 3.33333H3.33333C1.5 3.33333 0 4.83333 0 6.66667V26.6667C0 28.5 1.5 30 3.33333 30H30C31.8333 30 33.3333 28.5 33.3333 26.6667V6.66667C33.3333 4.83333 31.8333 3.33333 30 3.33333H24.7167L21.6667 0H11.6667ZM16.6667 25C12.0667 25 8.33333 21.2667 8.33333 16.6667C8.33333 12.0667 12.0667 8.33333 16.6667 8.33333C21.2667 8.33333 25 12.0667 25 16.6667C25 21.2667 21.2667 25 16.6667 25Z" fill="#FACA4E"/>
</svg>
