<svg width="74" height="74" viewBox="0 0 74 74" fill="none" xmlns="http://www.w3.org/2000/svg">
<g filter="url(#filter0_d_1717_1879)">
<circle cx="37" cy="33" r="30" fill="#FACA4E"/>
</g>
<path d="M27.6125 39.1375C25.9434 37.2296 25.0161 34.7849 25 32.25C25 26 30.6125 21 37.5 21C44.3875 21 50 26 50 32.25C50 38.5 44.3875 43.5 37.5 43.5C36.2322 43.5045 34.9701 43.332 33.75 42.9875L28.0125 45.8625C27.8549 45.9481 27.6793 45.9952 27.5 46C27.218 45.9984 26.9449 45.9015 26.725 45.725C26.5423 45.5785 26.4045 45.3837 26.3271 45.1627C26.2498 44.9417 26.236 44.7034 26.2875 44.475L27.6125 39.1375ZM42.5 33.5C42.7472 33.5 42.9889 33.4267 43.1945 33.2893C43.4 33.152 43.5602 32.9568 43.6548 32.7284C43.7495 32.4999 43.7742 32.2486 43.726 32.0061C43.6778 31.7637 43.5587 31.5409 43.3839 31.3661C43.2091 31.1913 42.9863 31.0722 42.7439 31.024C42.5014 30.9758 42.2501 31.0005 42.0216 31.0951C41.7932 31.1898 41.598 31.35 41.4607 31.5555C41.3233 31.7611 41.25 32.0028 41.25 32.25C41.25 32.5815 41.3817 32.8995 41.6161 33.1339C41.8505 33.3683 42.1685 33.5 42.5 33.5ZM37.5 33.5C37.7472 33.5 37.9889 33.4267 38.1945 33.2893C38.4 33.152 38.5602 32.9568 38.6549 32.7284C38.7495 32.4999 38.7742 32.2486 38.726 32.0061C38.6778 31.7637 38.5587 31.5409 38.3839 31.3661C38.2091 31.1913 37.9863 31.0722 37.7439 31.024C37.5014 30.9758 37.2501 31.0005 37.0216 31.0951C36.7932 31.1898 36.598 31.35 36.4607 31.5555C36.3233 31.7611 36.25 32.0028 36.25 32.25C36.25 32.5815 36.3817 32.8995 36.6161 33.1339C36.8505 33.3683 37.1685 33.5 37.5 33.5ZM32.5 33.5C32.7472 33.5 32.9889 33.4267 33.1945 33.2893C33.4 33.152 33.5602 32.9568 33.6549 32.7284C33.7495 32.4999 33.7742 32.2486 33.726 32.0061C33.6777 31.7637 33.5587 31.5409 33.3839 31.3661C33.2091 31.1913 32.9863 31.0722 32.7439 31.024C32.5014 30.9758 32.2501 31.0005 32.0216 31.0951C31.7932 31.1898 31.598 31.35 31.4607 31.5555C31.3233 31.7611 31.25 32.0028 31.25 32.25C31.25 32.5815 31.3817 32.8995 31.6161 33.1339C31.8505 33.3683 32.1685 33.5 32.5 33.5Z" fill="#231F20"/>
<defs>
<filter id="filter0_d_1717_1879" x="0" y="0" width="74" height="74" filterUnits="userSpaceOnUse" color-interpolation-filters="sRGB">
<feFlood flood-opacity="0" result="BackgroundImageFix"/>
<feColorMatrix in="SourceAlpha" type="matrix" values="0 0 0 0 0 0 0 0 0 0 0 0 0 0 0 0 0 0 127 0" result="hardAlpha"/>
<feOffset dy="4"/>
<feGaussianBlur stdDeviation="3.5"/>
<feComposite in2="hardAlpha" operator="out"/>
<feColorMatrix type="matrix" values="0 0 0 0 0 0 0 0 0 0 0 0 0 0 0 0 0 0 0.25 0"/>
<feBlend mode="normal" in2="BackgroundImageFix" result="effect1_dropShadow_1717_1879"/>
<feBlend mode="normal" in="SourceGraphic" in2="effect1_dropShadow_1717_1879" result="shape"/>
</filter>
</defs>
</svg>
