<svg width="23" height="24" viewBox="0 0 23 24" fill="none" xmlns="http://www.w3.org/2000/svg">
<path fill-rule="evenodd" clip-rule="evenodd" d="M19.6618 8.06376C20.1574 8.10456 20.527 8.53777 20.4874 9.03337C20.4802 9.11498 19.8298 17.1683 19.4554 20.5463C19.2226 22.6428 17.8378 23.9184 15.7474 23.9568C14.1477 23.9844 12.6045 24 11.0961 24C9.47006 24 7.88484 23.982 6.31641 23.9496C4.30998 23.91 2.92156 22.6092 2.69476 20.5547C2.31675 17.1467 1.66995 9.11378 1.66394 9.03337C1.62314 8.53777 1.99275 8.10336 2.48836 8.06376C2.97676 8.05056 3.41837 8.39377 3.45797 8.88817C3.4618 8.94026 3.72622 12.2207 4.01437 15.4663L4.07225 16.114C4.21738 17.7273 4.3645 19.2775 4.48399 20.3567C4.61239 21.5244 5.2424 22.1268 6.35361 22.1496C9.35366 22.2132 12.4149 22.2168 15.715 22.1568C16.8958 22.134 17.5342 21.5436 17.6662 20.3483C18.0382 16.9955 18.6862 8.96977 18.6934 8.88817C18.733 8.39377 19.171 8.04816 19.6618 8.06376ZM13.6147 0C14.7163 0 15.6847 0.742811 15.9691 1.80723L16.2739 3.32045C16.3724 3.81651 16.8077 4.17877 17.3118 4.18673L21.2499 4.18686C21.7467 4.18686 22.1499 4.59007 22.1499 5.08688C22.1499 5.58368 21.7467 5.98689 21.2499 5.98689L17.347 5.98671C17.3409 5.98683 17.3348 5.98689 17.3287 5.98689L17.2995 5.98569L4.85002 5.98674C4.84034 5.98684 4.83065 5.98689 4.82095 5.98689L4.80247 5.98569L0.900013 5.98689C0.403206 5.98689 0 5.58368 0 5.08688C0 4.59007 0.403206 4.18686 0.900013 4.18686L4.83727 4.18566L4.9585 4.17799C5.41005 4.1194 5.78533 3.77646 5.87697 3.32045L6.16857 1.86123C6.46498 0.742811 7.43339 0 8.53501 0H13.6147ZM13.6147 1.80003H8.53501C8.247 1.80003 7.9938 1.99323 7.9206 2.27043L7.64099 3.67445C7.60546 3.85229 7.55371 4.02368 7.48749 4.18718H14.6626C14.5963 4.02368 14.5444 3.85229 14.5087 3.67445L14.2171 2.21523C14.1559 1.99323 13.9027 1.80003 13.6147 1.80003Z" fill="#656565"/>
</svg>
