<svg width="19" height="21" viewBox="0 0 19 21" fill="none" xmlns="http://www.w3.org/2000/svg">
<path d="M14.7002 2.1V3.15H12.6002V2.1H6.3002V3.15H4.2002V2.1C4.2002 1.54305 4.42144 1.0089 4.81527 0.615076C5.2091 0.221249 5.74324 0 6.3002 0H12.6002C13.1571 0 13.6913 0.221249 14.0851 0.615076C14.4789 1.0089 14.7002 1.54305 14.7002 2.1Z" fill="#FACA4E"/>
<path d="M17.85 4.19922H1.05C0.771523 4.19922 0.504451 4.30984 0.307538 4.50676C0.110625 4.70367 0 4.97074 0 5.24922C0 5.5277 0.110625 5.79477 0.307538 5.99168C0.504451 6.18859 0.771523 6.29922 1.05 6.29922H2.1V18.8992C2.1 19.4562 2.32125 19.9903 2.71508 20.3841C3.1089 20.778 3.64305 20.9992 4.2 20.9992H14.7C15.257 20.9992 15.7911 20.778 16.1849 20.3841C16.5787 19.9903 16.8 19.4562 16.8 18.8992V6.29922H17.85C18.1285 6.29922 18.3955 6.18859 18.5925 5.99168C18.7894 5.79477 18.9 5.5277 18.9 5.24922C18.9 4.97074 18.7894 4.70367 18.5925 4.50676C18.3955 4.30984 18.1285 4.19922 17.85 4.19922ZM8.4 15.7492C8.4 16.0277 8.28937 16.2948 8.09246 16.4917C7.89555 16.6886 7.62848 16.7992 7.35 16.7992C7.07152 16.7992 6.80445 16.6886 6.60754 16.4917C6.41062 16.2948 6.3 16.0277 6.3 15.7492V9.44922C6.3 9.17074 6.41062 8.90367 6.60754 8.70676C6.80445 8.50984 7.07152 8.39922 7.35 8.39922C7.62848 8.39922 7.89555 8.50984 8.09246 8.70676C8.28937 8.90367 8.4 9.17074 8.4 9.44922V15.7492ZM12.6 15.7492C12.6 16.0277 12.4894 16.2948 12.2925 16.4917C12.0955 16.6886 11.8285 16.7992 11.55 16.7992C11.2715 16.7992 11.0045 16.6886 10.8075 16.4917C10.6106 16.2948 10.5 16.0277 10.5 15.7492V9.44922C10.5 9.17074 10.6106 8.90367 10.8075 8.70676C11.0045 8.50984 11.2715 8.39922 11.55 8.39922C11.8285 8.39922 12.0955 8.50984 12.2925 8.70676C12.4894 8.90367 12.6 9.17074 12.6 9.44922V15.7492Z" fill="#FACA4E"/>
</svg>
