<svg width="17" height="22" viewBox="0 0 17 22" fill="none" xmlns="http://www.w3.org/2000/svg">
<path fill-rule="evenodd" clip-rule="evenodd" d="M8.17208 0C5.5021 0 3.31852 2.16135 3.27407 4.82087C3.27014 4.84832 3.26884 4.87578 3.26884 4.90324V5.78059C3.21342 5.784 3.1544 5.78613 3.09505 5.78828L3.09501 5.78828C2.99473 5.79192 2.89352 5.79558 2.80728 5.80544C2.03976 5.89173 1.36376 6.08002 0.865594 6.57819C0.366117 7.07636 0.177832 7.75235 0.0902279 8.52118C0.00756264 9.25765 0.00768311 10.1417 0.00783966 11.2905L0.00785348 11.4435V15.4079C0.00262336 15.4485 8.30019e-06 15.489 8.30019e-06 15.5295L4.10791e-06 15.633C-6.74637e-05 16.806 -0.000122307 17.7049 0.0849978 18.4519C0.171295 19.2207 0.359579 19.8954 0.859056 20.3936C1.35723 20.893 2.03322 21.08 2.80074 21.1663C3.54745 21.2501 4.44463 21.2501 5.61568 21.25L5.72046 21.25H5.7283H10.6237C10.6314 21.25 10.639 21.2497 10.6469 21.2494H10.6469L10.6471 21.2493C10.6552 21.249 10.6635 21.2487 10.6721 21.2487H10.7256H10.7256C11.8947 21.2487 12.7977 21.2487 13.5434 21.165C14.3109 21.0787 14.9856 20.8917 15.4851 20.3923C15.9846 19.8941 16.1729 19.2194 16.2592 18.4506C16.3442 17.6944 16.3442 16.7808 16.3441 15.5873V15.5873V15.5335V15.5282V11.4474V11.4461V11.4435L16.3441 11.3401C16.3442 10.1671 16.3443 9.2682 16.2592 8.52118C16.1729 7.75235 15.9846 7.07636 15.4851 6.57819C14.9856 6.08002 14.3109 5.89173 13.5434 5.80544C13.4584 5.7959 13.3593 5.79168 13.261 5.78748C13.1975 5.78478 13.1343 5.78208 13.0753 5.77798V4.90324C13.0753 4.87317 13.074 4.84179 13.0701 4.81171C13.0204 2.15612 10.8381 0 8.17208 0ZM8.17294 1.63505C9.98649 1.63505 11.4418 3.09164 11.4418 4.90388V5.72762C11.3192 5.72762 11.2031 5.7267 11.0837 5.72574L11.0836 5.72574C10.9573 5.72473 10.8273 5.7237 10.6821 5.7237L10.6786 5.72347C10.6603 5.72224 10.643 5.72108 10.6246 5.72108H5.72917C5.7146 5.72108 5.70004 5.72221 5.68443 5.72342L5.68079 5.7237C5.53218 5.7237 5.39914 5.72474 5.26992 5.72574H5.26985C5.14782 5.7267 5.02921 5.72762 4.90412 5.72762V4.90388C4.90412 3.09164 6.3594 1.63505 8.17294 1.63505ZM10.5665 7.3549H5.76917L5.76786 7.35621C5.76133 7.35621 5.75479 7.35654 5.74825 7.35686C5.74171 7.35719 5.73518 7.35752 5.72864 7.35752C4.5061 7.35752 3.59998 7.36275 2.99067 7.43074C2.38136 7.49873 2.13685 7.61902 2.02048 7.73409C1.90542 7.84915 1.78513 8.09496 1.71583 8.70427C1.64784 9.31358 1.64261 10.2197 1.64261 11.4436V15.5296C1.64261 15.5675 1.6413 15.6054 1.63607 15.6446C1.63607 16.8018 1.6413 17.6805 1.70798 18.2676C1.77728 18.8782 1.89757 19.1227 2.01264 19.239C2.12901 19.3541 2.37351 19.4731 2.98282 19.5424C3.59213 19.6104 4.49825 19.6156 5.72079 19.6156H5.72864H10.5822C10.5894 19.615 10.5962 19.6146 10.6031 19.6143C10.61 19.614 10.6168 19.6137 10.624 19.613C11.8453 19.613 12.7514 19.6104 13.3607 19.5424C13.97 19.4731 14.2158 19.3528 14.3322 19.2364C14.4473 19.1214 14.5675 18.8756 14.6368 18.2662C14.7048 17.6582 14.7101 16.7534 14.7101 15.5335V11.4475V11.4449V11.4436C14.7101 10.2197 14.7048 9.31358 14.6368 8.70427C14.5675 8.09496 14.4473 7.84915 14.3322 7.73409C14.2158 7.61772 13.97 7.49873 13.3607 7.43074C12.7514 7.36275 11.8453 7.35752 10.624 7.35752C10.6056 7.35752 10.5883 7.35636 10.57 7.35513L10.5665 7.3549Z" fill="#646464" fill-opacity="0.52"/>
<path fill-rule="evenodd" clip-rule="evenodd" d="M8.17463 10.624C7.74053 10.624 7.32473 10.7966 7.01746 11.1025C6.71019 11.4098 6.5376 11.8269 6.5376 12.261C6.5376 12.5486 6.61343 12.8311 6.75726 13.0795C6.9024 13.3279 7.10899 13.5345 7.35742 13.6784V15.5298C7.35611 15.6383 7.37572 15.7456 7.41626 15.8462C7.45679 15.9469 7.51694 16.0384 7.59277 16.1156C7.66861 16.1927 7.76014 16.2542 7.85951 16.296C7.96019 16.3379 8.06741 16.3588 8.17463 16.3588C8.28315 16.3588 8.39037 16.3379 8.49105 16.296C8.59042 16.2542 8.68064 16.1927 8.75648 16.1156C8.83362 16.0384 8.89246 15.9469 8.93299 15.8462C8.97353 15.7456 8.99445 15.6383 8.99183 15.5298V13.677C9.24157 13.5332 9.44816 13.3266 9.59199 13.0782C9.73582 12.8298 9.81165 12.5486 9.81296 12.261C9.81296 11.8269 9.64037 11.4098 9.3331 11.1025C9.02583 10.7966 8.61003 10.624 8.17463 10.624Z" fill="#646464" fill-opacity="0.52"/>
</svg>
