<svg width="17" height="20" viewBox="0 0 17 20" fill="none" xmlns="http://www.w3.org/2000/svg">
<path d="M8.18731 13.8076C10.3897 13.8076 12.3331 13.9836 13.7025 14.4532C14.383 14.6865 14.8671 14.9745 15.1749 15.2997C15.4657 15.607 15.6246 15.9725 15.6246 16.4521C15.6246 16.9302 15.4654 17.2933 15.1739 17.5984C14.865 17.9218 14.379 18.2075 13.6964 18.4385C12.3231 18.9031 10.3788 19.0734 8.18731 19.0734C5.98502 19.0734 4.04154 18.8972 2.67218 18.4275C1.99164 18.194 1.50747 17.9061 1.19971 17.5809C0.908866 17.2735 0.75 16.9082 0.75 16.4289C0.75 15.9508 0.909199 15.5877 1.2006 15.2825C1.5094 14.9592 1.99531 14.6735 2.67784 14.4425C4.05095 13.9779 5.99522 13.8076 8.18731 13.8076ZM8.18731 0.75C10.8032 0.75 12.8547 2.7705 12.8547 5.2447C12.8547 7.7189 10.8032 9.73939 8.18731 9.73939C5.57143 9.73939 3.51989 7.7189 3.51989 5.2447C3.51989 2.7705 5.57143 0.75 8.18731 0.75Z" stroke="#646464" stroke-opacity="0.52" stroke-width="1.5"/>
</svg>
