<svg width="16" height="16" viewBox="0 0 16 16" fill="none" xmlns="http://www.w3.org/2000/svg">
<g clip-path="url(#clip0_4332_6252)">
<path d="M11.0002 2C10.3963 2.00991 9.80476 2.17215 9.28032 2.47166C8.75588 2.77117 8.31556 3.19827 8.0002 3.71333C7.68484 3.19827 7.24452 2.77117 6.72008 2.47166C6.19564 2.17215 5.60406 2.00991 5.0002 2C3.98628 2.05186 3.03342 2.50042 2.34739 3.24882C1.66136 3.99721 1.2972 4.9854 1.33353 6C1.33353 11.8333 7.4802 14.48 7.7402 14.5867C7.82245 14.6215 7.91087 14.6395 8.0002 14.6395C8.08953 14.6395 8.17795 14.6215 8.2602 14.5867C8.5202 14.5067 14.6669 11.86 14.6669 6C14.7032 4.9854 14.339 3.99721 13.653 3.24882C12.967 2.50042 12.0141 2.05186 11.0002 2Z" fill="#FF2323" stroke="#FF2323" stroke-width="2"/>
</g>
<defs>
<clipPath id="clip0_4332_6252">
<rect width="16" height="16" fill="white"/>
</clipPath>
</defs>
</svg>
