<svg width="18" height="22" viewBox="0 0 18 22" fill="none" xmlns="http://www.w3.org/2000/svg">
<path d="M8.83413 0C12.0292 0 14.6001 2.65627 14.6001 5.93561V7.62228C16.3934 8.21365 17.7 9.92875 17.7 11.9772V17.4078C17.7 19.9439 15.7099 22 13.2565 22H4.44457C1.99006 22 0 19.9439 0 17.4078V11.9772C0 9.92875 1.30766 8.21365 3.09988 7.62228V5.93561C3.11046 2.65627 5.68135 0 8.83413 0ZM8.84471 12.5227C8.33688 12.5227 7.92427 12.949 7.92427 13.4737V15.9004C7.92427 16.4361 8.33688 16.8624 8.84471 16.8624C9.36312 16.8624 9.77573 16.4361 9.77573 15.9004V13.4737C9.77573 12.949 9.36312 12.5227 8.84471 12.5227ZM8.85529 1.91295C6.70759 1.91295 4.96193 3.70565 4.95135 5.91374V7.38507H12.7487V5.93561C12.7487 3.71659 11.003 1.91295 8.85529 1.91295Z" fill="#FACA4E"/>
</svg>
