<svg width="48" height="46" viewBox="0 0 48 46" fill="none" xmlns="http://www.w3.org/2000/svg">
<rect x="0.5" y="0.5" width="47" height="45" rx="7.5" fill="white" stroke="#FACA4E"/>
<path d="M24.022 12C30.27 12 35 17.1227 35 22.9835C35 29.7807 29.456 34 24 34C22.196 34 20.194 33.5153 18.588 32.5679C18.027 32.2263 17.554 31.973 16.949 32.1713L14.727 32.8322C14.166 33.0085 13.66 32.5679 13.825 31.973L14.562 29.5053C14.683 29.1637 14.661 28.8002 14.485 28.5138C13.539 26.7732 13 24.8673 13 23.0165C13 17.2218 17.631 12 24.022 12ZM29.049 21.6174C28.268 21.6174 27.641 22.2454 27.641 23.0275C27.641 23.7987 28.268 24.4377 29.049 24.4377C29.83 24.4377 30.457 23.7987 30.457 23.0275C30.457 22.2454 29.83 21.6174 29.049 21.6174ZM23.978 21.6174C23.208 21.6064 22.57 22.2454 22.57 23.0165C22.57 23.7987 23.197 24.4266 23.978 24.4377C24.759 24.4377 25.386 23.7987 25.386 23.0275C25.386 22.2454 24.759 21.6174 23.978 21.6174ZM18.907 21.6174C18.126 21.6174 17.499 22.2454 17.499 23.0275C17.499 23.7987 18.137 24.4377 18.907 24.4377C19.688 24.4266 20.315 23.7987 20.315 23.0275C20.315 22.2454 19.688 21.6174 18.907 21.6174Z" fill="#FACA4E"/>
</svg>
