<svg width="17" height="22" viewBox="0 0 17 22" fill="none" xmlns="http://www.w3.org/2000/svg">
<path fill-rule="evenodd" clip-rule="evenodd" d="M8.17208 0C5.5021 0 3.31852 2.16135 3.27407 4.82087C3.27014 4.84832 3.26884 4.87578 3.26884 4.90324V5.78059C3.21342 5.784 3.1544 5.78613 3.09505 5.78828L3.09501 5.78828C2.99473 5.79192 2.89352 5.79558 2.80728 5.80544C2.03976 5.89173 1.36376 6.08002 0.865594 6.57819C0.366117 7.07636 0.177832 7.75235 0.0902279 8.52118C0.00756264 9.25765 0.00768311 10.1417 0.00783966 11.2905L0.00785348 11.4435V15.4079C0.00262336 15.4485 8.30019e-06 15.489 8.30019e-06 15.5295L4.10791e-06 15.633C-6.74637e-05 16.806 -0.000122307 17.7049 0.0849978 18.4519C0.171295 19.2207 0.359579 19.8954 0.859056 20.3936C1.35723 20.893 2.03322 21.08 2.80074 21.1663C3.54745 21.2501 4.44463 21.2501 5.61568 21.25L5.72046 21.25H5.7283H10.6237C10.6314 21.25 10.639 21.2497 10.6469 21.2494H10.6469L10.6471 21.2493C10.6552 21.249 10.6635 21.2487 10.6721 21.2487H10.7256H10.7256C11.8947 21.2487 12.7977 21.2487 13.5434 21.165C14.3109 21.0787 14.9856 20.8917 15.4851 20.3923C15.9846 19.8941 16.1729 19.2194 16.2592 18.4506C16.3442 17.6944 16.3442 16.7808 16.3441 15.5873V15.5873V15.5335V15.5282V11.4474V11.4461V11.4435L16.3441 11.3401C16.3442 10.1671 16.3443 9.2682 16.2592 8.52118C16.1729 7.75235 15.9846 7.07636 15.4851 6.57819C14.9856 6.08002 14.3109 5.89173 13.5434 5.80544C13.4584 5.7959 13.3593 5.79168 13.261 5.78748C13.1975 5.78478 13.1343 5.78208 13.0753 5.77798V4.90324C13.0753 4.87317 13.074 4.84179 13.0701 4.81171C13.0204 2.15612 10.8381 0 8.17208 0ZM8.17312 1.63477C9.98666 1.63477 11.4419 3.09135 11.4419 4.90359V5.72734C11.3193 5.72734 11.2032 5.72641 11.0838 5.72546C10.9574 5.72445 10.8275 5.72341 10.6823 5.72341L10.6788 5.72318C10.6605 5.72196 10.6432 5.7208 10.6247 5.7208H5.72934C5.71478 5.7208 5.70021 5.72193 5.68461 5.72313L5.68096 5.72341C5.53233 5.72341 5.39926 5.72445 5.27002 5.72546C5.148 5.72641 5.02938 5.72734 4.90429 5.72734V4.90359C4.90429 3.09135 6.35957 1.63477 8.17312 1.63477ZM10.5662 7.35547H5.76884L5.76753 7.35678C5.76099 7.35678 5.75446 7.3571 5.74792 7.35743C5.74138 7.35776 5.73484 7.35808 5.72831 7.35808C4.50577 7.35808 3.59965 7.36331 2.99034 7.43131C2.38103 7.4993 2.13652 7.61959 2.02015 7.73465C1.90509 7.84972 1.78479 8.09553 1.7155 8.70484C1.6475 9.31415 1.64227 10.2203 1.64227 11.4441V15.5302C1.64227 15.5681 1.64097 15.606 1.63574 15.6452C1.63574 16.8024 1.64097 17.681 1.70765 18.2681C1.77695 18.8787 1.89724 19.1232 2.0123 19.2396C2.12867 19.3547 2.37318 19.4737 2.98249 19.543C3.5918 19.611 4.49792 19.6162 5.72046 19.6162H5.72831H10.5819C10.589 19.6155 10.5959 19.6152 10.6028 19.6149C10.6096 19.6146 10.6165 19.6142 10.6237 19.6136C11.8449 19.6136 12.7511 19.611 13.3604 19.543C13.9697 19.4737 14.2155 19.3534 14.3319 19.237C14.4469 19.1219 14.5672 18.8761 14.6365 18.2668C14.7045 17.6588 14.7097 16.754 14.7097 15.5341V11.448V11.4454V11.4441C14.7097 10.2203 14.7045 9.31415 14.6365 8.70484C14.5672 8.09553 14.4469 7.84972 14.3319 7.73465C14.2155 7.61828 13.9697 7.4993 13.3604 7.43131C12.7511 7.36331 11.8449 7.35808 10.6237 7.35808C10.6052 7.35808 10.5879 7.35693 10.5696 7.3557L10.5662 7.35547Z" fill="#FACA4E"/>
<path fill-rule="evenodd" clip-rule="evenodd" d="M8.17463 10.623C7.74053 10.623 7.32473 10.7956 7.01746 11.1016C6.71019 11.4089 6.5376 11.826 6.5376 12.2601C6.5376 12.5477 6.61343 12.8302 6.75726 13.0786C6.9024 13.327 7.10899 13.5336 7.35742 13.6774V15.5289C7.35611 15.6374 7.37572 15.7446 7.41626 15.8453C7.45679 15.946 7.51694 16.0375 7.59277 16.1147C7.66861 16.1918 7.76014 16.2533 7.85951 16.2951C7.96019 16.337 8.06741 16.3579 8.17463 16.3579C8.28315 16.3579 8.39037 16.337 8.49105 16.2951C8.59042 16.2533 8.68064 16.1918 8.75648 16.1147C8.83362 16.0375 8.89246 15.946 8.93299 15.8453C8.97353 15.7446 8.99445 15.6374 8.99183 15.5289V13.6761C9.24157 13.5323 9.44816 13.3257 9.59199 13.0773C9.73582 12.8289 9.81165 12.5477 9.81296 12.2601C9.81296 11.826 9.64037 11.4089 9.3331 11.1016C9.02583 10.7956 8.61003 10.623 8.17463 10.623Z" fill="#FACA4E"/>
</svg>
