<svg width="19" height="23" viewBox="0 0 19 23" fill="none" xmlns="http://www.w3.org/2000/svg">
<path d="M9.33406 15.6365C11.8473 15.6365 14.0775 15.8369 15.6558 16.3782C16.4408 16.6474 17.01 16.9829 17.3766 17.3704C17.7264 17.7401 17.9181 18.1825 17.9181 18.7565C17.9181 19.329 17.7259 19.7688 17.3752 20.1359C17.0071 20.5213 16.4357 20.8542 15.6484 21.1206C14.0658 21.6561 11.8348 21.85 9.33406 21.85C6.82087 21.85 4.5907 21.6493 3.01238 21.1079C2.22736 20.8386 1.65814 20.503 1.29145 20.1155C0.941675 19.7459 0.75 19.3037 0.75 18.73C0.75 18.1575 0.942209 17.7177 1.29279 17.3505C1.66077 16.9652 2.23203 16.6323 3.01924 16.3659C4.60172 15.8304 6.83268 15.6365 9.33406 15.6365ZM9.33406 0.75C12.3711 0.75 14.7603 3.09735 14.7603 5.9793C14.7603 8.86125 12.3711 11.2086 9.33406 11.2086C6.29701 11.2086 3.90786 8.86125 3.90786 5.9793C3.90786 3.09735 6.29701 0.75 9.33406 0.75Z" stroke="#FACA4E" stroke-width="1.5"/>
</svg>
