<svg width="22" height="22" viewBox="0 0 22 22" fill="none" xmlns="http://www.w3.org/2000/svg">
<path d="M20.7653 19.4984C21.4462 19.4984 22 20.0594 22 20.7492C22 21.4403 21.4462 22 20.7653 22H13.7863C13.1054 22 12.5516 21.4403 12.5516 20.7492C12.5516 20.0594 13.1054 19.4984 13.7863 19.4984H20.7653ZM15.9254 0.854411L17.7282 2.28651C18.4674 2.86461 18.9603 3.62665 19.1289 4.4281C19.3234 5.3097 19.1159 6.17553 18.5323 6.92443L7.79337 20.8119C7.30053 21.4425 6.57422 21.7973 5.79604 21.8104L1.51604 21.863C1.28258 21.863 1.08804 21.7053 1.03616 21.4819L0.0634314 17.2645C-0.105175 16.4893 0.0634314 15.6878 0.55628 15.0703L8.1695 5.21641C8.29919 5.05875 8.53265 5.03379 8.68828 5.15072L11.8918 7.6996C12.0993 7.8704 12.3847 7.96237 12.683 7.92296C13.3185 7.84412 13.7465 7.26603 13.6816 6.64851C13.6427 6.33319 13.4871 6.07042 13.2796 5.87334C13.2147 5.82079 10.1668 3.37701 10.1668 3.37701C9.97229 3.21935 9.93338 2.9303 10.089 2.73454L11.2952 1.16974C12.4106 -0.262366 14.356 -0.393752 15.9254 0.854411Z" fill="#FACA4E"/>
</svg>
