<svg width="23" height="23" viewBox="0 0 23 23" fill="none" xmlns="http://www.w3.org/2000/svg">
<path d="M16.4839 0C20.3816 0 23 2.73483 23 6.80423V16.1958C23 20.2652 20.3816 23 16.4827 23H6.51611C2.61843 23 0 20.2652 0 16.1958V6.80423C0 2.73483 2.61843 0 6.51611 0H16.4839ZM17.7521 12.1326C16.5193 11.3635 15.5676 12.4435 15.3109 12.7889C15.0634 13.1223 14.8506 13.4902 14.6263 13.8582C14.0782 14.766 13.4502 15.8128 12.3632 16.4216C10.7835 17.2963 9.58433 16.4905 8.72165 15.9042C8.39785 15.6858 8.08331 15.4793 7.76992 15.3416C6.99744 15.0082 6.30243 15.3879 5.27091 16.6981C4.72971 17.3829 4.19314 18.0618 3.64962 18.7382C3.32467 19.1429 3.40215 19.7672 3.84043 20.0378C4.54006 20.4686 5.39349 20.7 6.35794 20.7H16.0498C16.5968 20.7 17.145 20.6252 17.6677 20.4543C18.8449 20.0698 19.7793 19.1892 20.2673 18.0262C20.679 17.0482 20.879 15.8615 20.4939 14.874C20.3656 14.5465 20.1736 14.2415 19.9042 13.9733C19.1976 13.2719 18.5373 12.6168 17.7521 12.1326ZM7.47369 4.6C5.88824 4.6 4.6 5.88999 4.6 7.475C4.6 9.06001 5.88824 10.35 7.47369 10.35C9.05797 10.35 10.3474 9.06001 10.3474 7.475C10.3474 5.88999 9.05797 4.6 7.47369 4.6Z" fill="#C5C5C5"/>
</svg>
