<svg width="27" height="28" viewBox="0 0 27 28" fill="none" xmlns="http://www.w3.org/2000/svg">
<path d="M14.3041 0C15.3629 0 16.3215 0.588 16.8508 1.456C17.1084 1.876 17.2801 2.394 17.2371 2.94C17.2085 3.36 17.3373 3.78 17.5662 4.172C18.2959 5.362 19.9126 5.81 21.1717 5.138C22.5881 4.326 24.3765 4.816 25.1921 6.202L26.1506 7.854C26.9805 9.24 26.5226 11.018 25.0919 11.816C23.8758 12.53 23.4465 14.112 24.1762 15.316C24.4051 15.694 24.6627 16.016 25.0633 16.212C25.564 16.478 25.9503 16.898 26.2222 17.318C26.7516 18.186 26.7086 19.25 26.1936 20.188L25.1921 21.868C24.6627 22.764 23.6755 23.324 22.6596 23.324C22.1589 23.324 21.6009 23.184 21.1431 22.904C20.7711 22.666 20.3418 22.582 19.884 22.582C18.4676 22.582 17.2801 23.744 17.2371 25.13C17.2371 26.74 15.9209 28 14.2755 28H12.3297C10.67 28 9.35375 26.74 9.35375 25.13C9.32514 23.744 8.13763 22.582 6.72119 22.582C6.24905 22.582 5.81983 22.666 5.46214 22.904C5.0043 23.184 4.43201 23.324 3.94556 23.324C2.91542 23.324 1.92821 22.764 1.39884 21.868L0.411628 20.188C-0.117746 19.278 -0.146361 18.186 0.383013 17.318C0.611931 16.898 1.04115 16.478 1.52761 16.212C1.92821 16.016 2.18575 15.694 2.42897 15.316C3.14434 14.112 2.71512 12.53 1.49899 11.816C0.0825575 11.018 -0.375279 9.24 0.440243 7.854L1.39884 6.202C2.22867 4.816 4.00279 4.326 5.43353 5.138C6.67827 5.81 8.29501 5.362 9.02468 4.172C9.2536 3.78 9.38237 3.36 9.35375 2.94C9.32514 2.394 9.48252 1.876 9.75436 1.456C10.2837 0.588 11.2423 0.028 12.2868 0H14.3041ZM13.3169 10.052C11.0706 10.052 9.2536 11.816 9.2536 14.014C9.2536 16.212 11.0706 17.962 13.3169 17.962C15.5632 17.962 17.3373 16.212 17.3373 14.014C17.3373 11.816 15.5632 10.052 13.3169 10.052Z" fill="#333333"/>
</svg>
