<svg width="18" height="23" viewBox="0 0 18 23" fill="none" xmlns="http://www.w3.org/2000/svg">
<path d="M13.6198 13.2294C13.1358 13.2329 12.6578 13.3702 12.2181 13.632C11.7783 13.8938 11.3868 14.2741 11.0697 14.7475L6.74298 11.9533C6.84407 11.3442 6.84407 10.7143 6.74298 10.1052L11.0697 7.31096C11.5967 8.08425 12.3168 8.59349 13.1043 8.74978C13.8919 8.90608 14.6968 8.69951 15.3787 8.16613C16.0605 7.63275 16.576 6.80643 16.8351 5.8314C17.0942 4.85636 17.0805 3.79453 16.7964 2.83122C16.5123 1.86791 15.9758 1.06431 15.2806 0.560665C14.5854 0.0570201 13.7756 -0.11468 12.9925 0.0755298C12.2094 0.26574 11.5029 0.805781 10.9961 1.6014C10.4893 2.39702 10.2145 3.39768 10.2197 4.42875C10.219 4.73947 10.2446 5.04935 10.2962 5.35282L5.96944 8.14702C5.51544 7.46921 4.91222 6.98716 4.2406 6.76544C3.56898 6.54373 2.86104 6.59294 2.21164 6.90649C1.56224 7.22004 1.00239 7.78295 0.607111 8.51979C0.211831 9.25663 0 10.1322 0 11.0292C0 11.9262 0.211831 12.8018 0.607111 13.5387C1.00239 14.2755 1.56224 14.8384 2.21164 15.1519C2.86104 15.4655 3.56898 15.5147 4.2406 15.293C4.91222 15.0713 5.51544 14.5892 5.96944 13.9114L10.2962 16.7056C10.2446 17.0091 10.219 17.319 10.2197 17.6297C10.2197 18.5 10.4191 19.3507 10.7927 20.0744C11.1663 20.798 11.6973 21.362 12.3186 21.695C12.9399 22.0281 13.6236 22.1152 14.2832 21.9454C14.9427 21.7757 15.5486 21.3566 16.0241 20.7412C16.4996 20.1258 16.8235 19.3417 16.9547 18.4881C17.0859 17.6346 17.0185 16.7498 16.7612 15.9458C16.5038 15.1417 16.068 14.4545 15.5089 13.971C14.9497 13.4874 14.2923 13.2294 13.6198 13.2294Z" fill="#FACA4E"/>
</svg>
