<svg width="30" height="30" viewBox="0 0 30 30" fill="none" xmlns="http://www.w3.org/2000/svg">
<g clip-path="url(#clip0_262_6251)">
<path d="M14.9875 2.5C8.0875 2.5 2.5 8.1 2.5 15C2.5 21.9 8.0875 27.5 14.9875 27.5C21.9 27.5 27.5 21.9 27.5 15C27.5 8.1 21.9 2.5 14.9875 2.5ZM10.625 10C11.6625 10 12.5 10.8375 12.5 11.875C12.5 12.9125 11.6625 13.75 10.625 13.75C9.5875 13.75 8.75 12.9125 8.75 11.875C8.75 10.8375 9.5875 10 10.625 10ZM15 22.5C12.15 22.5 9.725 20.425 8.75 17.5H21.25C20.275 20.425 17.85 22.5 15 22.5ZM19.375 13.75C18.3375 13.75 17.5 12.9125 17.5 11.875C17.5 10.8375 18.3375 10 19.375 10C20.4125 10 21.25 10.8375 21.25 11.875C21.25 12.9125 20.4125 13.75 19.375 13.75Z" fill="#848484"/>
</g>
<defs>
<clipPath id="clip0_262_6251">
<rect width="30" height="30" fill="white"/>
</clipPath>
</defs>
</svg>
