<svg width="24" height="24" viewBox="0 0 24 24" fill="none" xmlns="http://www.w3.org/2000/svg">
<path fill-rule="evenodd" clip-rule="evenodd" d="M11.1844 0.04289C11.6722 0.04289 12.0681 0.438797 12.0681 0.926612C12.0681 1.41443 11.6722 1.81033 11.1844 1.81033H6.77874C3.73402 1.81033 1.76744 3.89592 1.76744 7.12327V16.9196C1.76744 20.147 3.73402 22.2326 6.77874 22.2326H17.176C20.2207 22.2326 22.1885 20.147 22.1885 16.9196V12.1734C22.1885 11.6856 22.5844 11.2897 23.0722 11.2897C23.56 11.2897 23.9559 11.6856 23.9559 12.1734V16.9196C23.9559 21.1544 21.2305 24 17.176 24H6.77874C2.72422 24 0 21.1544 0 16.9196V7.12327C0 2.88847 2.72422 0.04289 6.77874 0.04289H11.1844ZM21.4469 1.07814L22.8809 2.51213C23.5796 3.20968 23.9637 4.137 23.9625 5.12441C23.9625 6.11182 23.5784 7.03796 22.8809 7.73433L14.033 16.5822C13.3838 17.2314 12.5189 17.5896 11.5999 17.5896H7.18596C6.94794 17.5896 6.71935 17.493 6.55321 17.3221C6.38707 17.1525 6.29634 16.9227 6.30223 16.6835L6.41299 12.2307C6.43538 11.3446 6.7924 10.5116 7.41926 9.88354L16.2258 1.07814C17.6657 -0.35938 20.007 -0.35938 21.4469 1.07814ZM15.5005 4.30196L8.66943 11.1337C8.36425 11.4389 8.19104 11.8442 8.18044 12.2743L8.09206 15.8222H11.5999C12.0476 15.8222 12.4671 15.6489 12.784 15.332L19.6563 8.45781L15.5005 4.30196ZM17.4748 2.32831L16.7495 3.05179L20.9053 7.20881L21.6319 6.48416C21.9948 6.12125 22.1951 5.63814 22.1951 5.12441C22.1951 4.60949 21.9948 4.12521 21.6319 3.7623L20.1979 2.32831C19.4473 1.58009 18.2266 1.58009 17.4748 2.32831Z" fill="#656565"/>
</svg>
