<svg width="32" height="32" viewBox="0 0 32 32" fill="none" xmlns="http://www.w3.org/2000/svg">
<circle cx="15.5563" cy="15.5547" r="11" transform="rotate(-45 15.5563 15.5547)" fill="#FACA4E"/>
<path fill-rule="evenodd" clip-rule="evenodd" d="M15.1262 10.0197C15.3498 10.0197 15.5312 10.2011 15.5312 10.4247C15.5312 10.6483 15.3498 10.8297 15.1262 10.8297H13.1069C11.7114 10.8297 10.8101 11.7856 10.8101 13.2648V17.7548C10.8101 19.234 11.7114 20.1899 13.1069 20.1899H17.8723C19.2678 20.1899 20.1697 19.234 20.1697 17.7548V15.5795C20.1697 15.3559 20.3512 15.1745 20.5748 15.1745C20.7983 15.1745 20.9798 15.3559 20.9798 15.5795V17.7548C20.9798 19.6958 19.7307 21 17.8723 21H13.1069C11.2486 21 10 19.6958 10 17.7548V13.2648C10 11.3239 11.2486 10.0197 13.1069 10.0197H15.1262ZM19.8298 10.4941L20.4871 11.1514C20.8073 11.4711 20.9834 11.8961 20.9828 12.3487C20.9828 12.8013 20.8068 13.2257 20.4871 13.5449L16.4318 17.6002C16.1342 17.8977 15.7378 18.0619 15.3166 18.0619H13.2936C13.1845 18.0619 13.0797 18.0176 13.0036 17.9393C12.9274 17.8615 12.8858 17.7562 12.8885 17.6466L12.9393 15.6057C12.9495 15.1996 13.1132 14.8178 13.4005 14.53L17.4368 10.4941C18.0968 9.83528 19.1699 9.83528 19.8298 10.4941ZM17.1044 11.9717L13.9735 15.103C13.8336 15.2428 13.7542 15.4286 13.7494 15.6257L13.7089 17.2518H15.3166C15.5218 17.2518 15.7141 17.1724 15.8594 17.0272L19.0092 13.8765L17.1044 11.9717ZM18.0093 11.0671L17.6768 11.3987L19.5816 13.304L19.9146 12.9719C20.0809 12.8056 20.1727 12.5841 20.1727 12.3487C20.1727 12.1127 20.0809 11.8907 19.9146 11.7244L19.2574 11.0671C18.9133 10.7242 18.3539 10.7242 18.0093 11.0671Z" fill="white"/>
</svg>
